<?xml version="1.0" encoding="utf-8"?>
<!-- Generator: Adobe Illustrator 25.2.1, SVG Export Plug-In . SVG Version: 6.00 Build 0)  -->
<svg version="1.1" id="Layer_1" xmlns="http://www.w3.org/2000/svg" xmlns:xlink="http://www.w3.org/1999/xlink" x="0px" y="0px"
	 viewBox="0 0 512 512" style="enable-background:new 0 0 512 512;" xml:space="preserve">
<style type="text/css">
	.st0{fill:#FFFFFF;}
</style>
<path class="st0" d="M373.41,0H138.59C62.17,0,0,62.17,0,138.59v234.82C0,449.83,62.17,512,138.59,512h234.82
	C449.83,512,512,449.83,512,373.41V138.59C512,62.17,449.83,0,373.41,0z M481.98,373.41c0,59.87-48.71,108.57-108.58,108.57H138.59
	c-59.87,0-108.58-48.71-108.58-108.57V138.59c0-59.87,48.71-108.58,108.58-108.58h234.82c59.87,0,108.57,48.71,108.57,108.58V373.41
	z"/>
<path class="st0" d="M256,116c-77.2,0-140,62.8-140,140s62.8,140,140,140s140-62.8,140-140S333.2,116,256,116z M256,365.98
	c-60.64,0-109.98-49.34-109.98-109.98c0-60.64,49.34-109.98,109.98-109.98c60.64,0,109.98,49.34,109.98,109.98
	C365.98,316.64,316.64,365.98,256,365.98z"/>
<path class="st0" d="M399.34,66.29c-22.81,0-41.37,18.56-41.37,41.37c0,22.81,18.55,41.37,41.37,41.37s41.37-18.56,41.37-41.37
	S422.16,66.29,399.34,66.29z M399.34,119c-6.26,0-11.35-5.09-11.35-11.35c0-6.26,5.09-11.35,11.35-11.35
	c6.26,0,11.36,5.09,11.36,11.35C410.7,113.91,405.61,119,399.34,119z"/>
</svg>
